<svg width="27" height="27" viewBox="0 0 27 27" fill="none" xmlns="http://www.w3.org/2000/svg">
<path d="M18.461 13.8362H26M18.461 13.8362H13.9376M18.461 13.8362V3.60466M26 13.8362V16.1517H18.461V26.3294H8.55257V21.9137C2.04747 21.8706 0.977648 16.2953 1.1751 13.6208M26 13.8362V3.60466M15.93 13.8362V1.66606C15.5531 1.16346 14.6269 0.459817 13.9376 1.66606V12.2207M13.9376 12.2207H1.7136C1.1751 12.4899 0.4212 13.19 1.7136 13.8362H13.9376M13.9376 12.2207V13.8362M18.461 3.60466V1.66606H26V3.60466M18.461 3.60466H26M20.4534 7.85882H23.6844V5.32786H21.692V6.51257L20.4534 6.94337V7.85882Z" stroke="#747474" stroke-linecap="round"/>
</svg>
