<svg width="25" height="16" viewBox="0 0 25 16" fill="none" xmlns="http://www.w3.org/2000/svg">
<path d="M11.25 9.90872H11.75V9.40872V3.78372C11.75 3.71455 11.8058 3.65872 11.875 3.65872H20.625C22.7653 3.65872 24.5 5.39346 24.5 7.53372V15.0337C24.5 15.1029 24.4442 15.1587 24.375 15.1587H23.125C23.0558 15.1587 23 15.1029 23 15.0337V13.1587V12.6587H22.5H2.5H2V13.1587V15.0337C2 15.1029 1.94417 15.1587 1.875 15.1587H0.625C0.55583 15.1587 0.5 15.1029 0.5 15.0337V1.28372C0.5 1.21455 0.55583 1.15872 0.625 1.15872H1.875C1.94417 1.15872 2 1.21455 2 1.28372V9.40872V9.90872H2.5H11.25ZM9.5 5.03372C9.5 6.48063 8.32191 7.65872 6.875 7.65872C5.4281 7.65872 4.25 6.48063 4.25 5.03372C4.25 3.58682 5.4281 2.40872 6.875 2.40872C8.32191 2.40872 9.5 3.58682 9.5 5.03372Z" stroke="#747474"/>
</svg>
