<svg width="65" height="48" viewBox="0 0 65 48" fill="none" xmlns="http://www.w3.org/2000/svg">
<path d="M2 46.5143H10.26M61.0909 46.5143H53.4663M53.4663 46.5143V22.6344M53.4663 46.5143H28.0508M53.4663 22.6344H61.0909L53.1486 16.81M53.4663 22.6344H10.26M10.26 22.6344H3.27077L32.4985 1.66666L45.2063 10.9857M10.26 22.6344V46.5143M10.26 46.5143H15.3431M15.3431 46.5143V43.0197H18.52M15.3431 46.5143H28.0508M18.52 43.0197V30.2061H24.8739V43.0197M18.52 43.0197H24.8739M24.8739 43.0197H28.0508V46.5143M45.2063 10.9857V5.16128H53.4663L53.1486 16.81M45.2063 10.9857L53.1486 16.81M32.4985 30.2061V37.1953H45.2063V30.2061H32.4985Z" stroke="#757575" stroke-width="2" stroke-linecap="round"/>
</svg>
