<svg width="47" height="47" viewBox="0 0 47 47" fill="none" xmlns="http://www.w3.org/2000/svg">
<g filter="url(#filter0_d_72_97)">
<path d="M37.3223 6.48242C33.2305 2.38086 27.7812 0.125 21.9902 0.125C10.0371 0.125 0.310547 9.85156 0.310547 21.8047C0.310547 25.623 1.30664 29.3535 3.20117 32.6445L0.125 43.875L11.6191 40.8574C14.7832 42.5859 18.3477 43.4941 21.9805 43.4941H21.9902C33.9336 43.4941 43.875 33.7676 43.875 21.8145C43.875 16.0234 41.4141 10.584 37.3223 6.48242ZM21.9902 39.8418C18.748 39.8418 15.5742 38.9727 12.8105 37.332L12.1562 36.9414L5.33984 38.7285L7.15625 32.0781L6.72656 31.3945C4.91992 28.5234 3.97266 25.2129 3.97266 21.8047C3.97266 11.873 12.0586 3.78711 22 3.78711C26.8145 3.78711 31.3359 5.66211 34.7344 9.07031C38.1328 12.4785 40.2227 17 40.2129 21.8145C40.2129 31.7559 31.9219 39.8418 21.9902 39.8418ZM31.873 26.3457C31.3359 26.0723 28.6699 24.7637 28.1719 24.5879C27.6738 24.4023 27.3125 24.3145 26.9512 24.8613C26.5898 25.4082 25.5547 26.6191 25.2324 26.9902C24.9199 27.3516 24.5977 27.4004 24.0605 27.127C20.877 25.5352 18.7871 24.2852 16.6875 20.6816C16.1309 19.7246 17.2441 19.793 18.2793 17.7227C18.4551 17.3613 18.3672 17.0488 18.2305 16.7754C18.0938 16.502 17.0098 13.8359 16.5605 12.752C16.1211 11.6973 15.6719 11.8438 15.3398 11.8242C15.0273 11.8047 14.666 11.8047 14.3047 11.8047C13.9434 11.8047 13.3574 11.9414 12.8594 12.4785C12.3613 13.0254 10.9648 14.334 10.9648 17C10.9648 19.666 12.9082 22.2441 13.1719 22.6055C13.4453 22.9668 16.9902 28.4355 22.4297 30.7891C25.8672 32.2734 27.2148 32.4004 28.9336 32.1465C29.9785 31.9902 32.1367 30.8379 32.5859 29.5684C33.0352 28.2988 33.0352 27.2148 32.8984 26.9902C32.7715 26.7461 32.4102 26.6094 31.873 26.3457Z" fill="white"/>
</g>
<defs>
<filter id="filter0_d_72_97" x="0.125" y="0.125" width="53.75" height="55.75" filterUnits="userSpaceOnUse" color-interpolation-filters="sRGB">
<feFlood flood-opacity="0" result="BackgroundImageFix"/>
<feColorMatrix in="SourceAlpha" type="matrix" values="0 0 0 0 0 0 0 0 0 0 0 0 0 0 0 0 0 0 127 0" result="hardAlpha"/>
<feOffset dx="5" dy="7"/>
<feGaussianBlur stdDeviation="2.5"/>
<feComposite in2="hardAlpha" operator="out"/>
<feColorMatrix type="matrix" values="0 0 0 0 0 0 0 0 0 0 0 0 0 0 0 0 0 0 0.7 0"/>
<feBlend mode="normal" in2="BackgroundImageFix" result="effect1_dropShadow_72_97"/>
<feBlend mode="normal" in="SourceGraphic" in2="effect1_dropShadow_72_97" result="shape"/>
</filter>
</defs>
</svg>
