<svg width="55" height="50" viewBox="0 0 55 50" fill="none" xmlns="http://www.w3.org/2000/svg">
<path d="M0 48.3404H2.90135M54.5455 48.3404H51.6441M51.6441 48.3404V27.0638H45.8414M51.6441 48.3404H42.3598M42.3598 48.3404V27.0638H43.5203M42.3598 48.3404H37.7176M37.7176 48.3404V8.44681H30.4642M37.7176 48.3404H17.4081M17.4081 48.3404V8.44681H23.2108M17.4081 48.3404H12.1857M12.1857 48.3404V27.0638H11.0251M12.1857 48.3404H2.90135M2.90135 48.3404V27.0638H8.70406M8.70406 27.0638V23.8723H11.0251V27.0638M8.70406 27.0638H11.0251M43.5203 27.0638V23.8723H45.8414V27.0638M43.5203 27.0638H45.8414M23.2108 8.44681V4.7234H27.2727M23.2108 8.44681H30.4642M30.4642 8.44681L30.5311 4.7234H28.4333M28.4333 4.7234V1H27.2727V4.7234M28.4333 4.7234H27.2727M20.8897 14.2979H33.6557M20.8897 20.6809H33.6557M20.8897 27.0638H33.6557M20.8897 33.4468H33.6557M20.8897 39.2979H33.6557" stroke="#757575" stroke-width="2"/>
</svg>
