<svg width="170" height="170" viewBox="0 0 170 170" fill="none" xmlns="http://www.w3.org/2000/svg">
<rect x="1.41421" y="84.8528" width="118" height="118" transform="rotate(-45 1.41421 84.8528)" fill="#D8B871" fill-opacity="0.3" stroke="#A59061" stroke-width="2"/>
<rect x="60" y="144.749" width="35" height="35" transform="rotate(-45 60 144.749)" fill="#A59061"/>
<rect x="60" y="144.749" width="35" height="35" transform="rotate(-45 60 144.749)" fill="#A59061"/>
<g clip-path="url(#clip0_72_92)">
<path d="M90.125 143.094H85.9062V138.875C85.9062 138.357 85.4864 137.938 84.9688 137.938H84.0312C83.5136 137.938 83.0938 138.357 83.0938 138.875V143.094H78.875C78.3573 143.094 77.9375 143.514 77.9375 144.031V144.969C77.9375 145.486 78.3573 145.906 78.875 145.906H83.0938V150.125C83.0938 150.643 83.5136 151.062 84.0312 151.062H84.9688C85.4864 151.062 85.9062 150.643 85.9062 150.125V145.906H90.125C90.6427 145.906 91.0625 145.486 91.0625 144.969V144.031C91.0625 143.514 90.6427 143.094 90.125 143.094Z" fill="white"/>
</g>
<g clip-path="url(#clip1_72_92)">
<g filter="url(#filter0_d_72_92)">
<path d="M96.6348 88.125L98.0234 79.0762H89.3408V73.2041C89.3408 70.7285 90.5537 68.3154 94.4424 68.3154H98.3896V60.6113C98.3896 60.6113 94.8076 60 91.3828 60C84.2324 60 79.5586 64.334 79.5586 72.1797V79.0762H71.6104V88.125H79.5586V110H89.3408V88.125H96.6348Z" fill="white"/>
</g>
</g>
<defs>
<filter id="filter0_d_72_92" x="71.6104" y="60" width="36.7793" height="62" filterUnits="userSpaceOnUse" color-interpolation-filters="sRGB">
<feFlood flood-opacity="0" result="BackgroundImageFix"/>
<feColorMatrix in="SourceAlpha" type="matrix" values="0 0 0 0 0 0 0 0 0 0 0 0 0 0 0 0 0 0 127 0" result="hardAlpha"/>
<feOffset dx="5" dy="7"/>
<feGaussianBlur stdDeviation="2.5"/>
<feComposite in2="hardAlpha" operator="out"/>
<feColorMatrix type="matrix" values="0 0 0 0 0 0 0 0 0 0 0 0 0 0 0 0 0 0 0.7 0"/>
<feBlend mode="normal" in2="BackgroundImageFix" result="effect1_dropShadow_72_92"/>
<feBlend mode="normal" in="SourceGraphic" in2="effect1_dropShadow_72_92" result="shape"/>
</filter>
<clipPath id="clip0_72_92">
<rect width="15" height="15" fill="white" transform="translate(77 137)"/>
</clipPath>
<clipPath id="clip1_72_92">
<rect width="50" height="50" fill="white" transform="translate(60 60)"/>
</clipPath>
</defs>
</svg>
