<svg width="27" height="24" viewBox="0 0 27 24" fill="none" xmlns="http://www.w3.org/2000/svg">
<path d="M1.65798 9.83817V23.0457H3.14755V9.0712M1.65798 9.83817L3.14755 9.0712M1.65798 9.83817C0.466317 8.92457 1.16145 7.57071 1.65798 7.00798L13.3263 1.00003L25.938 7.25624C26.2161 9.40123 25.4912 9.87127 25.0939 9.83817M25.0939 9.83817V23.294H23.8526V9.20442M25.0939 9.83817L23.8526 9.20442M23.8526 9.20442L13.3263 3.83022L3.14755 9.0712M6.32531 14.4559H4.33921C3.86254 15.2503 4.1406 15.6806 4.33921 15.7965H5.77913M6.32531 14.4559C6.32531 14.4559 7.31836 11.8243 7.71558 10.8312C8.1128 9.83817 18.4902 9.73887 18.9867 10.8312C19.4832 11.9236 20.5259 14.4559 20.5259 14.4559M6.32531 14.4559L6.05222 15.1262M20.5259 14.4559H22.512C22.6941 14.6545 22.949 15.2006 22.512 15.7965H21.2211M20.5259 14.4559L20.8735 15.1262M21.2211 15.7965L21.7672 16.8392V19.9673C21.7176 20.3645 21.4693 21.1093 20.7742 21.1093H18.3909M21.2211 15.7965L20.8735 15.1262M21.2211 15.7965C20.0294 17.3456 18.1095 17.6667 17.2985 17.6336H10.5458C7.24884 17.7528 5.99429 16.4585 5.77913 15.7965M5.77913 15.7965L5.03434 16.8392V19.719C4.94577 20.6933 5.43685 21.033 5.89193 21.1093M5.77913 15.7965L6.05222 15.1262M20.8735 15.1262H6.05222M9.1555 18.726H10.7444M12.7801 18.726H17.6957M17.4971 19.8183H9.2548M5.89193 21.1093C6.07704 21.1093 6.17635 21.1093 6.32531 21.1093H8.55967M5.89193 21.1093V22.4002C5.87088 22.7478 5.97774 23.3436 6.97079 23.3436H7.76523C8.06314 23.3436 8.55967 23.2443 8.55967 22.4499C8.55967 21.6555 8.55967 21.2251 8.55967 21.1093M8.55967 21.1093H18.3909M18.3909 21.1093V22.5492C18.3743 22.7975 18.5001 23.294 19.1356 23.294C19.7712 23.294 20.0294 23.294 20.079 23.294C20.377 23.3105 20.9728 23.1848 20.9728 22.5492C20.9728 21.9137 20.9728 21.3113 20.9728 21.0961M18.3909 19.9176C18.1922 19.7687 18.6888 18.6267 18.6888 18.6267C18.6888 18.6267 20.1166 17.6745 20.5259 18.2791C20.7759 18.6484 20.5259 19.4211 20.5259 19.4211C20.5259 19.4211 18.5895 20.0666 18.3909 19.9176ZM8.41071 19.8183C8.55967 19.5204 8.06314 18.4777 8.06314 18.4777C8.06314 18.4777 6.76838 17.5984 6.32531 18.1301C6.00256 18.5174 6.32531 19.4211 6.32531 19.4211C6.32531 19.4211 8.26175 20.1162 8.41071 19.8183Z" stroke="#757575" stroke-linecap="round"/>
</svg>
