<svg width="40" height="40" viewBox="0 0 40 40" fill="none" xmlns="http://www.w3.org/2000/svg">
<g clip-path="url(#clip0_150_13083)">
<path fill-rule="evenodd" clip-rule="evenodd" d="M5.97009 8.35815V14.785H7.82084V32.2274H32.782V14.785H34.6268V8.35815H5.97009ZM31.8573 31.3062H8.74562V14.779H31.8573V31.3062ZM33.7014 13.8638H6.89547V9.27636H33.7014V13.8638Z" fill="#313234"/>
<path fill-rule="evenodd" clip-rule="evenodd" d="M24.4507 16.7678H16.1522V20.0825H24.4507V16.7678ZM23.6203 19.2538H16.9827V17.5929H23.6203V19.2538Z" fill="#313234"/>
<path fill-rule="evenodd" clip-rule="evenodd" d="M29.2346 28.2531V30.5719H30.065V28.2531L30.6023 28.7904L31.1898 28.2029L29.6507 26.6638L28.1116 28.2017L28.699 28.7892L29.2346 28.2531Z" fill="#313234"/>
<path fill-rule="evenodd" clip-rule="evenodd" d="M23.5671 28.7898L24.0984 28.2525V30.5713H24.9289V28.2531L25.4662 28.7904L26.0536 28.2029L24.5145 26.6638L22.9796 28.2017L23.5671 28.7898Z" fill="#313234"/>
</g>
<defs>
<clipPath id="clip0_150_13083">
<rect width="40" height="40" fill="white"/>
</clipPath>
</defs>
</svg>
