<svg width="40" height="40" viewBox="0 0 40 40" fill="none" xmlns="http://www.w3.org/2000/svg">
<g clip-path="url(#clip0_252_21736)">
<path d="M13.6252 19.0131C12.2067 19.013 10.82 19.4335 9.6405 20.2215C8.461 21.0095 7.54166 22.1296 6.99874 23.4401C6.45582 24.7506 6.31371 26.1926 6.59037 27.5839C6.86704 28.9751 7.55005 30.2531 8.55304 31.2562C9.55603 32.2593 10.8339 32.9424 12.2252 33.2192C13.6164 33.4959 15.0585 33.3539 16.369 32.8111C17.6796 32.2683 18.7997 31.3491 19.5878 30.1696C20.3759 28.9902 20.7965 27.6036 20.7965 26.1851C20.7946 24.2836 20.0385 22.4606 18.694 21.116C17.3496 19.7715 15.5266 19.0152 13.6252 19.0131ZM13.6252 32.4006C12.3959 32.4006 11.1942 32.0361 10.172 31.3531C9.14988 30.6701 8.35322 29.6994 7.88278 28.5636C7.41234 27.4279 7.28926 26.1782 7.52908 24.9725C7.76891 23.7668 8.36088 22.6593 9.23014 21.79C10.0994 20.9208 11.2069 20.3288 12.4126 20.089C13.6183 19.8491 14.868 19.9722 16.0038 20.4427C17.1395 20.9131 18.1102 21.7098 18.7932 22.7319C19.4762 23.754 19.8407 24.9557 19.8407 26.1851C19.8388 27.8329 19.1833 29.4128 18.0181 30.578C16.8529 31.7432 15.2731 32.3987 13.6252 32.4006Z" fill="#313234"/>
<path d="M30.8377 24.751C29.7824 24.7543 28.7653 25.1461 27.9805 25.8516C27.1958 26.5572 26.6984 27.5271 26.5834 28.5761H22.7093V26.188C22.7094 24.3094 22.127 22.477 21.0424 20.9431C19.9579 19.4092 18.4244 18.2493 16.6532 17.6231C14.882 16.9968 12.9603 16.9352 11.1526 17.4465C9.34491 17.9578 7.74021 19.017 6.55948 20.4782C6.47975 20.5767 6.44245 20.7029 6.45577 20.829C6.4691 20.9551 6.53196 21.0707 6.63052 21.1504C6.72909 21.2301 6.85528 21.2674 6.98135 21.2541C7.10742 21.2408 7.22304 21.1779 7.30276 21.0794C8.3595 19.7731 9.79506 18.8264 11.4119 18.3696C13.0288 17.9127 14.7475 17.9681 16.3316 18.5282C17.9157 19.0882 19.2873 20.1254 20.2577 21.497C21.2281 22.8686 21.7496 24.5073 21.7505 26.1874V29.0561C21.7505 29.1828 21.8008 29.3042 21.8904 29.3938C21.98 29.4834 22.1015 29.5337 22.2281 29.5337H26.5798C26.674 30.3569 27.0046 31.1352 27.5314 31.7748C28.0583 32.4143 28.759 32.8876 29.5489 33.1377C30.3389 33.3878 31.1843 33.4039 31.9832 33.184C32.7821 32.9642 33.5003 32.5179 34.0512 31.8989C34.602 31.2799 34.9619 30.5147 35.0874 29.6957C35.213 28.8766 35.0988 28.0388 34.7586 27.2832C34.4185 26.5277 33.8669 25.8867 33.1705 25.4377C32.4741 24.9887 31.6627 24.7508 30.8341 24.7528L30.8377 24.751ZM30.8377 32.4012C30.1757 32.4012 29.5287 32.2049 28.9783 31.8371C28.4279 31.4694 27.9989 30.9466 27.7456 30.3351C27.4923 29.7235 27.426 29.0506 27.5551 28.4014C27.6843 27.7521 28.003 27.1558 28.4711 26.6877C28.9392 26.2196 29.5355 25.9009 30.1847 25.7717C30.834 25.6426 31.5069 25.7089 32.1185 25.9622C32.73 26.2155 33.2527 26.6445 33.6205 27.1949C33.9883 27.7453 34.1845 28.3923 34.1845 29.0543C34.1834 29.9415 33.8305 30.7921 33.203 31.4195C32.5756 32.0468 31.7249 32.3996 30.8377 32.4006V32.4012Z" fill="#313234"/>
<path d="M8.74095 17.0908C8.80227 17.1044 8.86567 17.1058 8.92753 17.0949C8.98939 17.084 9.04849 17.061 9.10145 17.0272C9.15441 16.9935 9.20019 16.9496 9.23616 16.8981C9.27214 16.8466 9.2976 16.7885 9.3111 16.7272L11.1404 8.49374H19.0281L22.7386 18.6979C22.7721 18.7902 22.8332 18.8699 22.9137 18.9262C22.9941 18.9825 23.0899 19.0127 23.1881 19.0125H26.535V19.4902C26.5359 19.7857 26.6282 20.0737 26.7992 20.3147C26.9702 20.5557 27.2116 20.7379 27.4902 20.8364V22.3588C27.4902 22.4855 27.5405 22.607 27.6301 22.6965C27.7197 22.7861 27.8412 22.8364 27.9678 22.8364C28.0945 22.8364 28.216 22.7861 28.3055 22.6965C28.3951 22.607 28.4454 22.4855 28.4454 22.3588V20.8364C28.724 20.7379 28.9654 20.5557 29.1364 20.3147C29.3074 20.0737 29.3997 19.7857 29.4007 19.4902V19.0125H33.2257V24.2728C33.2257 24.3995 33.2761 24.521 33.3656 24.6106C33.4552 24.7001 33.5767 24.7505 33.7033 24.7505C33.83 24.7505 33.9515 24.7001 34.0411 24.6106C34.1306 24.521 34.181 24.3995 34.181 24.2728V18.5355C34.181 18.4089 34.1306 18.2874 34.0411 18.1978C33.9515 18.1082 33.83 18.0579 33.7033 18.0579H29.403V14.7105C29.4021 14.4149 29.3098 14.1269 29.1388 13.8859C28.9678 13.6449 28.7264 13.4627 28.4478 13.3642V11.8418C28.4478 11.4618 28.2969 11.0973 28.0282 10.8286C27.7594 10.5599 27.395 10.409 27.015 10.409C26.8883 10.409 26.7668 10.4593 26.6773 10.5489C26.5877 10.6384 26.5374 10.7599 26.5374 10.8866C26.5374 11.0132 26.5877 11.1347 26.6773 11.2243C26.7668 11.3139 26.8883 11.3642 27.015 11.3642C27.1417 11.3642 27.2631 11.4145 27.3527 11.5041C27.4423 11.5936 27.4926 11.7151 27.4926 11.8418V13.3642C27.214 13.4627 26.9726 13.6449 26.8016 13.8859C26.6306 14.1269 26.5383 14.4149 26.5374 14.7105V18.0573H23.5236L20.0454 8.49374H20.3189C20.4455 8.49374 20.567 8.44342 20.6566 8.35385C20.7462 8.26428 20.7965 8.1428 20.7965 8.01612C20.7965 7.88945 20.7462 7.76797 20.6566 7.6784C20.567 7.58883 20.4455 7.53851 20.3189 7.53851H9.79886C9.67219 7.53851 9.55071 7.58883 9.46114 7.6784C9.37157 7.76797 9.32125 7.88945 9.32125 8.01612C9.32125 8.1428 9.37157 8.26428 9.46114 8.35385C9.55071 8.44342 9.67219 8.49374 9.79886 8.49374H10.1571L8.37737 16.5194C8.36356 16.5808 8.36201 16.6443 8.37283 16.7063C8.38364 16.7683 8.40661 16.8276 8.44039 16.8807C8.47418 16.9338 8.51813 16.9796 8.56971 17.0157C8.62129 17.0518 8.67948 17.0773 8.74095 17.0908ZM27.4908 14.7116C27.4908 14.585 27.5411 14.4635 27.6307 14.3739C27.7203 14.2844 27.8417 14.234 27.9684 14.234C28.0951 14.234 28.2166 14.2844 28.3061 14.3739C28.3957 14.4635 28.446 14.585 28.446 14.7116V19.4925C28.446 19.6192 28.3957 19.7407 28.3061 19.8303C28.2166 19.9198 28.0951 19.9702 27.9684 19.9702C27.8417 19.9702 27.7203 19.9198 27.6307 19.8303C27.5411 19.7407 27.4908 19.6192 27.4908 19.4925V14.7116Z" fill="#313234"/>
<path d="M13.6252 22.8383C12.9632 22.8383 12.3162 23.0345 11.7658 23.4023C11.2154 23.7701 10.7864 24.2928 10.5331 24.9043C10.2798 25.5159 10.2135 26.1888 10.3426 26.8381C10.4718 27.4873 10.7905 28.0836 11.2586 28.5517C11.7267 29.0198 12.323 29.3385 12.9722 29.4677C13.6215 29.5968 14.2944 29.5305 14.906 29.2772C15.5175 29.0239 16.0402 28.5949 16.408 28.0445C16.7758 27.4942 16.9721 26.8471 16.9721 26.1851C16.9711 25.2978 16.6182 24.447 15.9907 23.8196C15.3633 23.1921 14.5125 22.8392 13.6252 22.8383ZM13.6252 28.5756C13.1529 28.5756 12.6912 28.4355 12.2985 28.1731C11.9057 27.9107 11.5997 27.5377 11.4189 27.1014C11.2382 26.665 11.1909 26.1849 11.283 25.7216C11.3752 25.2584 11.6026 24.8329 11.9366 24.4989C12.2706 24.1649 12.6961 23.9375 13.1593 23.8453C13.6225 23.7532 14.1027 23.8005 14.5391 23.9812C14.9754 24.162 15.3484 24.4681 15.6108 24.8608C15.8732 25.2535 16.0132 25.7152 16.0132 26.1875C16.0118 26.8204 15.7598 27.427 15.3122 27.8746C14.8647 28.3221 14.2581 28.5741 13.6252 28.5756Z" fill="#313234"/>
<path d="M30.8348 26.6633C30.3625 26.6633 29.9008 26.8033 29.5081 27.0657C29.1154 27.3281 28.8093 27.7011 28.6286 28.1375C28.4478 28.5738 28.4005 29.054 28.4927 29.5172C28.5848 29.9805 28.8122 30.406 29.1462 30.7399C29.4802 31.0739 29.9057 31.3014 30.369 31.3935C30.8322 31.4856 31.3124 31.4384 31.7487 31.2576C32.1851 31.0769 32.558 30.7708 32.8204 30.3781C33.0828 29.9854 33.2229 29.5236 33.2229 29.0513C33.2216 28.4184 32.9696 27.8117 32.5221 27.3641C32.0745 26.9165 31.4678 26.6645 30.8348 26.6633ZM30.8348 30.4883C30.5515 30.4883 30.2744 30.4043 30.0388 30.2469C29.8032 30.0894 29.6195 29.8656 29.5111 29.6038C29.4026 29.342 29.3742 29.0539 29.4295 28.776C29.4848 28.498 29.6213 28.2427 29.8217 28.0423C30.0221 27.842 30.2774 27.7055 30.5553 27.6502C30.8333 27.5949 31.1213 27.6233 31.3832 27.7317C31.645 27.8402 31.8688 28.0238 32.0262 28.2595C32.1836 28.4951 32.2677 28.7721 32.2677 29.0555C32.2669 29.4353 32.1157 29.7993 31.8471 30.0678C31.5786 30.3363 31.2146 30.4876 30.8348 30.4883Z" fill="#313234"/>
</g>
<defs>
<clipPath id="clip0_252_21736">
<rect width="40" height="40" fill="white"/>
</clipPath>
</defs>
</svg>
