<svg width="40" height="40" viewBox="0 0 40 40" fill="none" xmlns="http://www.w3.org/2000/svg">
<g clip-path="url(#clip0_252_21710)">
<path d="M27.0721 9.53906H12.6416C12.5229 9.53906 12.409 9.58623 12.325 9.67021C12.241 9.75418 12.1938 9.86807 12.1938 9.98682C12.1938 10.1056 12.241 10.2195 12.325 10.3034C12.409 10.3874 12.5229 10.4346 12.6416 10.4346H27.0738C27.1926 10.4346 27.3065 10.3874 27.3905 10.3034C27.4744 10.2195 27.5216 10.1056 27.5216 9.98682C27.5216 9.86807 27.4744 9.75418 27.3905 9.67021C27.3065 9.58623 27.1926 9.53906 27.0738 9.53906H27.0721Z" fill="#313234"/>
<path d="M32.0996 11.9421H29.9658V10.1893C29.9651 9.38709 29.646 8.61803 29.0787 8.05087C28.5115 7.48371 27.7423 7.16482 26.9402 7.16418H12.7688C11.9668 7.16513 11.1979 7.48415 10.6308 8.05125C10.0637 8.61836 9.74471 9.38724 9.74376 10.1893V11.9421H7.61182C7.49307 11.9421 7.37918 11.9893 7.29521 12.0732C7.21123 12.1572 7.16406 12.2711 7.16406 12.3899V18.7451C7.16406 18.8638 7.21123 18.9777 7.29521 19.0617C7.37918 19.1457 7.49307 19.1928 7.61182 19.1928H9.74376V29.5719C9.74376 29.6907 9.79094 29.8046 9.87491 29.8886C9.95888 29.9725 10.0728 30.0197 10.1915 30.0197H10.656V32.0949C10.656 32.2137 10.7032 32.3276 10.7871 32.4116C10.8711 32.4955 10.985 32.5427 11.1038 32.5427H14.1635C14.2822 32.5427 14.3961 32.4955 14.4801 32.4116C14.5641 32.3276 14.6112 32.2137 14.6112 32.0949V30.0197H25.1008V32.0949C25.1008 32.2137 25.148 32.3276 25.2319 32.4116C25.3159 32.4955 25.4298 32.5427 25.5485 32.5427H28.6088C28.7276 32.5427 28.8415 32.4955 28.9254 32.4116C29.0094 32.3276 29.0566 32.2137 29.0566 32.0949V30.0197H29.5205C29.6392 30.0197 29.7531 29.9725 29.8371 29.8886C29.9211 29.8046 29.9682 29.6907 29.9682 29.5719V19.1928H32.0996C32.2183 19.1928 32.3322 19.1457 32.4162 19.0617C32.5002 18.9777 32.5473 18.8638 32.5473 18.7451V12.3899C32.5473 12.2711 32.5002 12.1572 32.4162 12.0732C32.3322 11.9893 32.2183 11.9421 32.0996 11.9421ZM9.74317 18.2973H8.05958V12.8376H9.74317V18.2973ZM13.7151 31.6472H11.5515V30.0197H13.7163L13.7151 31.6472ZM28.1629 31.6472H25.9981V30.0197H28.1641L28.1629 31.6472ZM10.6393 29.1242V27.3749H29.0703L29.0745 29.1242H10.6393ZM10.6393 24.5272H14.647V26.48H10.6399L10.6393 24.5272ZM15.5444 26.48V24.5266H24.1718V26.4794L15.5444 26.48ZM25.0673 26.48V24.5266H29.0709L29.0751 26.4794L25.0673 26.48ZM29.0751 23.6317H10.6393V12.8376H29.0703L29.0745 18.7481L29.0751 23.6317ZM10.6399 11.9427V10.1899C10.6405 9.62525 10.8651 9.08396 11.2643 8.68473C11.6635 8.28549 12.2048 8.06094 12.7694 8.06031H26.9432C27.5078 8.06094 28.0492 8.28547 28.4485 8.68469C28.8478 9.0839 29.0725 9.6252 29.0733 10.1899V11.9427H10.6399ZM29.9664 18.2979V12.8382H31.65L31.6542 18.2979H29.9664Z" fill="#313234"/>
</g>
<defs>
<clipPath id="clip0_252_21710">
<rect width="40" height="40" fill="white"/>
</clipPath>
</defs>
</svg>
