<svg width="170" height="170" viewBox="0 0 170 170" fill="none" xmlns="http://www.w3.org/2000/svg">
<rect x="1.41421" y="84.8528" width="118" height="118" transform="rotate(-45 1.41421 84.8528)" fill="#D8B871" fill-opacity="0.3" stroke="#A59061" stroke-width="2"/>
<rect x="60" y="142.749" width="35" height="35" transform="rotate(-45 60 142.749)" fill="#A59061"/>
<rect x="60" y="142.749" width="35" height="35" transform="rotate(-45 60 142.749)" fill="#A59061"/>
<g clip-path="url(#clip0_72_99)">
<path d="M90.125 141.094H85.9062V136.875C85.9062 136.357 85.4864 135.938 84.9688 135.938H84.0312C83.5136 135.938 83.0938 136.357 83.0938 136.875V141.094H78.875C78.3573 141.094 77.9375 141.514 77.9375 142.031V142.969C77.9375 143.486 78.3573 143.906 78.875 143.906H83.0938V148.125C83.0938 148.643 83.5136 149.062 84.0312 149.062H84.9688C85.4864 149.062 85.9062 148.643 85.9062 148.125V143.906H90.125C90.6427 143.906 91.0625 143.486 91.0625 142.969V142.031C91.0625 141.514 90.6427 141.094 90.125 141.094Z" fill="white"/>
</g>
<g clip-path="url(#clip1_72_99)">
<g filter="url(#filter0_d_72_99)">
<path d="M85.0098 73.7695C78.7988 73.7695 73.7891 78.7793 73.7891 84.9902C73.7891 91.2012 78.7988 96.2109 85.0098 96.2109C91.2207 96.2109 96.2305 91.2012 96.2305 84.9902C96.2305 78.7793 91.2207 73.7695 85.0098 73.7695ZM85.0098 92.2852C80.9961 92.2852 77.7148 89.0137 77.7148 84.9902C77.7148 80.9668 80.9863 77.6953 85.0098 77.6953C89.0332 77.6953 92.3047 80.9668 92.3047 84.9902C92.3047 89.0137 89.0234 92.2852 85.0098 92.2852ZM99.3066 73.3105C99.3066 74.7656 98.1348 75.9277 96.6895 75.9277C95.2344 75.9277 94.0723 74.7559 94.0723 73.3105C94.0723 71.8652 95.2441 70.6934 96.6895 70.6934C98.1348 70.6934 99.3066 71.8652 99.3066 73.3105ZM106.738 75.9668C106.572 72.4609 105.771 69.3555 103.203 66.7969C100.645 64.2383 97.5391 63.4375 94.0332 63.2617C90.4199 63.0566 79.5898 63.0566 75.9766 63.2617C72.4805 63.4277 69.375 64.2285 66.8066 66.7871C64.2383 69.3457 63.4473 72.4512 63.2715 75.957C63.0664 79.5703 63.0664 90.4004 63.2715 94.0137C63.4375 97.5195 64.2383 100.625 66.8066 103.184C69.375 105.742 72.4707 106.543 75.9766 106.719C79.5898 106.924 90.4199 106.924 94.0332 106.719C97.5391 106.553 100.645 105.752 103.203 103.184C105.762 100.625 106.562 97.5195 106.738 94.0137C106.943 90.4004 106.943 79.5801 106.738 75.9668ZM102.07 97.8906C101.309 99.8047 99.834 101.279 97.9102 102.051C95.0293 103.193 88.1934 102.93 85.0098 102.93C81.8262 102.93 74.9805 103.184 72.1094 102.051C70.1953 101.289 68.7207 99.8145 67.9492 97.8906C66.8066 95.0098 67.0703 88.1738 67.0703 84.9902C67.0703 81.8066 66.8164 74.9609 67.9492 72.0898C68.7109 70.1758 70.1855 68.7012 72.1094 67.9297C74.9902 66.7871 81.8262 67.0508 85.0098 67.0508C88.1934 67.0508 95.0391 66.7969 97.9102 67.9297C99.8242 68.6914 101.299 70.166 102.07 72.0898C103.213 74.9707 102.949 81.8066 102.949 84.9902C102.949 88.1738 103.213 95.0195 102.07 97.8906Z" fill="white"/>
</g>
</g>
<defs>
<filter id="filter0_d_72_99" x="63.1177" y="63.1079" width="53.7744" height="55.7646" filterUnits="userSpaceOnUse" color-interpolation-filters="sRGB">
<feFlood flood-opacity="0" result="BackgroundImageFix"/>
<feColorMatrix in="SourceAlpha" type="matrix" values="0 0 0 0 0 0 0 0 0 0 0 0 0 0 0 0 0 0 127 0" result="hardAlpha"/>
<feOffset dx="5" dy="7"/>
<feGaussianBlur stdDeviation="2.5"/>
<feComposite in2="hardAlpha" operator="out"/>
<feColorMatrix type="matrix" values="0 0 0 0 0 0 0 0 0 0 0 0 0 0 0 0 0 0 0.7 0"/>
<feBlend mode="normal" in2="BackgroundImageFix" result="effect1_dropShadow_72_99"/>
<feBlend mode="normal" in="SourceGraphic" in2="effect1_dropShadow_72_99" result="shape"/>
</filter>
<clipPath id="clip0_72_99">
<rect width="15" height="15" fill="white" transform="translate(77 135)"/>
</clipPath>
<clipPath id="clip1_72_99">
<rect width="50" height="50" fill="white" transform="translate(60 60)"/>
</clipPath>
</defs>
</svg>
