<svg width="47" height="47" viewBox="0 0 47 47" fill="none" xmlns="http://www.w3.org/2000/svg">
<g filter="url(#filter0_d_72_89)">
<path d="M22.0098 10.7695C15.7988 10.7695 10.7891 15.7793 10.7891 21.9902C10.7891 28.2012 15.7988 33.2109 22.0098 33.2109C28.2207 33.2109 33.2305 28.2012 33.2305 21.9902C33.2305 15.7793 28.2207 10.7695 22.0098 10.7695ZM22.0098 29.2852C17.9961 29.2852 14.7148 26.0137 14.7148 21.9902C14.7148 17.9668 17.9863 14.6953 22.0098 14.6953C26.0332 14.6953 29.3047 17.9668 29.3047 21.9902C29.3047 26.0137 26.0234 29.2852 22.0098 29.2852ZM36.3066 10.3105C36.3066 11.7656 35.1348 12.9277 33.6895 12.9277C32.2344 12.9277 31.0723 11.7559 31.0723 10.3105C31.0723 8.86523 32.2441 7.69336 33.6895 7.69336C35.1348 7.69336 36.3066 8.86523 36.3066 10.3105ZM43.7383 12.9668C43.5723 9.46094 42.7715 6.35547 40.2031 3.79687C37.6445 1.23828 34.5391 0.4375 31.0332 0.261719C27.4199 0.0566406 16.5898 0.0566406 12.9766 0.261719C9.48047 0.427734 6.375 1.22852 3.80664 3.78711C1.23828 6.3457 0.447266 9.45117 0.271484 12.957C0.0664063 16.5703 0.0664063 27.4004 0.271484 31.0137C0.4375 34.5195 1.23828 37.625 3.80664 40.1836C6.375 42.7422 9.4707 43.543 12.9766 43.7188C16.5898 43.9238 27.4199 43.9238 31.0332 43.7188C34.5391 43.5527 37.6445 42.752 40.2031 40.1836C42.7617 37.625 43.5625 34.5195 43.7383 31.0137C43.9434 27.4004 43.9434 16.5801 43.7383 12.9668ZM39.0703 34.8906C38.3086 36.8047 36.834 38.2793 34.9102 39.0508C32.0293 40.1934 25.1934 39.9297 22.0098 39.9297C18.8262 39.9297 11.9805 40.1836 9.10938 39.0508C7.19531 38.2891 5.7207 36.8145 4.94922 34.8906C3.80664 32.0098 4.07031 25.1738 4.07031 21.9902C4.07031 18.8066 3.81641 11.9609 4.94922 9.08984C5.71094 7.17578 7.18555 5.70117 9.10938 4.92969C11.9902 3.78711 18.8262 4.05078 22.0098 4.05078C25.1934 4.05078 32.0391 3.79687 34.9102 4.92969C36.8242 5.69141 38.2988 7.16602 39.0703 9.08984C40.2129 11.9707 39.9492 18.8066 39.9492 21.9902C39.9492 25.1738 40.2129 32.0195 39.0703 34.8906Z" fill="white"/>
</g>
<defs>
<filter id="filter0_d_72_89" x="0.117676" y="0.10791" width="53.7744" height="55.7646" filterUnits="userSpaceOnUse" color-interpolation-filters="sRGB">
<feFlood flood-opacity="0" result="BackgroundImageFix"/>
<feColorMatrix in="SourceAlpha" type="matrix" values="0 0 0 0 0 0 0 0 0 0 0 0 0 0 0 0 0 0 127 0" result="hardAlpha"/>
<feOffset dx="5" dy="7"/>
<feGaussianBlur stdDeviation="2.5"/>
<feComposite in2="hardAlpha" operator="out"/>
<feColorMatrix type="matrix" values="0 0 0 0 0 0 0 0 0 0 0 0 0 0 0 0 0 0 0.7 0"/>
<feBlend mode="normal" in2="BackgroundImageFix" result="effect1_dropShadow_72_89"/>
<feBlend mode="normal" in="SourceGraphic" in2="effect1_dropShadow_72_89" result="shape"/>
</filter>
</defs>
</svg>
