<svg width="30" height="26" viewBox="0 0 30 26" fill="none" xmlns="http://www.w3.org/2000/svg">
<path d="M16.4591 2.95917L16.4588 2.9594L15.3595 4.09222L15.0007 4.46196L14.6419 4.09222L13.5425 2.9594L13.542 2.95881C10.9024 0.229854 6.64714 -0.182364 3.81301 2.23258C0.531124 5.03368 0.356715 10.0682 3.29534 13.1062L14.093 24.2554C14.0931 24.2555 14.0931 24.2555 14.0931 24.2555C14.5942 24.7725 15.4016 24.7725 15.9027 24.2555C15.9027 24.2555 15.9027 24.2555 15.9028 24.2554L26.7007 13.106L26.7008 13.1059C29.6445 10.068 29.4702 5.03393 26.1887 2.23282L16.4591 2.95917ZM16.4591 2.95917C19.1045 0.229564 23.3544 -0.182197 26.1884 2.23258L16.4591 2.95917Z" stroke="#FF4747"/>
</svg>
