<svg width="21" height="16" viewBox="0 0 21 16" fill="none" xmlns="http://www.w3.org/2000/svg">
<path d="M20.4631 5.45312C20.6154 5.33203 20.842 5.44531 20.842 5.63672V13.625C20.842 14.6602 20.0021 15.5 18.967 15.5H2.71698C1.68182 15.5 0.84198 14.6602 0.84198 13.625V5.64062C0.84198 5.44531 1.06464 5.33594 1.22089 5.45703C2.09589 6.13672 3.25604 7 7.24042 9.89453C8.06464 10.4961 9.45526 11.7617 10.842 11.7539C12.2365 11.7656 13.6545 10.4727 14.4474 9.89453C18.4318 7 19.5881 6.13281 20.4631 5.45312ZM10.842 10.5C11.7482 10.5156 13.0529 9.35938 13.7092 8.88281C18.8928 5.12109 19.2873 4.79297 20.4826 3.85547C20.7092 3.67969 20.842 3.40625 20.842 3.11719V2.375C20.842 1.33984 20.0021 0.5 18.967 0.5H2.71698C1.68182 0.5 0.84198 1.33984 0.84198 2.375V3.11719C0.84198 3.40625 0.974792 3.67578 1.20135 3.85547C2.39667 4.78906 2.7912 5.12109 7.97479 8.88281C8.63104 9.35938 9.93573 10.5156 10.842 10.5Z" fill="#A29060"/>
</svg>
