<svg width="26" height="30" viewBox="0 0 26 30" fill="none" xmlns="http://www.w3.org/2000/svg">
<g clip-path="url(#clip0_76_106)">
<path d="M1.11771 6.7013L1.11772 6.7013L6.72222 4.11469V23.0311L0.772858 26.1556C0.725525 26.1748 0.678258 26.1698 0.62514 26.1283C0.56378 26.0804 0.5 25.9804 0.5 25.8322V7.79481C0.5 7.79477 0.5 7.79474 0.5 7.79471C0.500065 7.54673 0.564785 7.30925 0.679709 7.11344C0.794446 6.91795 0.950132 6.77864 1.11771 6.7013ZM24.8824 23.2985L24.8823 23.2985L19.2778 25.8851V6.96875L25.2271 3.84421C25.2745 3.82508 25.3217 3.82999 25.3749 3.8715C25.4362 3.91945 25.5 4.0194 25.5 4.16763V22.2051C25.5 22.4531 25.4353 22.6906 25.3204 22.8865C25.2056 23.0819 25.05 23.2212 24.8824 23.2985ZM9.16667 4.06127L16.8333 7.00998V25.9386L9.16667 22.9898V4.06127Z" stroke="#A59061"/>
</g>
<defs>
<clipPath id="clip0_76_106">
<rect width="26" height="30" fill="white"/>
</clipPath>
</defs>
</svg>
