<svg width="32" height="24" viewBox="0 0 32 24" fill="none" xmlns="http://www.w3.org/2000/svg">
<path d="M1 11.4895V14.8156H3.66962M1 11.4458H7.08324M2.88186 23.4809H3.66962M22.7071 23.4809H19.9937M19.9937 23.4809H16.4926M19.9937 23.4809V20.9864M16.4926 23.4809H13.5166M16.4926 23.4809V20.9864M13.5166 23.4809H10.1467M13.5166 23.4809V20.9864M10.1467 23.4809H7.08324M10.1467 23.4809V20.9864M7.08324 23.4809H3.66962M7.08324 23.4809V20.9864M3.66962 23.4809V20.9864M23.0062 15.4283C22.6788 18.1968 23.6268 21.3185 24.3701 22.9558H19.9937M23.0062 15.4283C23.1543 14.1761 23.5633 12.9962 24.3701 12.0585L24.9828 11.2707C25.0995 10.7747 25.0704 9.8965 24.02 10.3517L22.4445 11.7083L22.3132 9.21378C22.0069 8.71779 21.2366 8.02339 20.6064 9.21378V11.4458M23.0062 15.4283C23.276 15.4283 25.8581 15.9972 26.9522 13.3276C28.4402 13.561 31.2324 13.1701 30.4971 9.73895C31.139 8.44061 31.6788 5.70388 28.7028 5.1437C28.4694 4.15171 27.4336 2.41281 25.1579 3.39313C24.0638 1.94891 21.1228 -0.160527 18.1118 2.95549C16.4342 2.53244 13.1227 2.8242 13.2978 7.37568C13.0006 7.58794 12.6413 8.03215 12.9477 9.17002M13.5166 11.4458H10.1467M13.5166 11.4458H16.4926M13.5166 11.4458V10.5924V9.73895L11.5472 7.76956L10.1467 9.73895V11.4458M19.9499 14.8156C20.4313 15.6034 20.5189 17.0476 20.1688 17.5728M7.08324 11.4458V10.0015L5.33267 7.76956L3.66962 9.73895V11.4458M7.08324 11.4458H10.1467M7.08324 14.8156V17.5728M7.08324 14.8156H3.66962M7.08324 14.8156H10.1467M7.08324 17.5728H3.66962M7.08324 17.5728H10.1467M3.66962 14.8156V17.5728M3.66962 17.5728H1V20.9864H3.66962M3.66962 20.9864H10.1467M10.1467 14.8156V17.5728M10.1467 14.8156H13.5166M10.1467 17.5728H13.5166M10.1467 20.9864H13.5166M13.5166 14.8156V17.5728M13.5166 14.8156H16.4926M13.5166 17.5728H16.4926M13.5166 20.9864H16.4926M16.4926 20.9864H19.9937M16.4926 17.5728V14.8156M16.4926 17.5728H19.9937M16.4926 14.8156H19.9937M16.4926 11.4458V9.73895L18.3744 7.76956L19.9937 9.73895V11.4458M16.4926 11.4458H19.9937M19.9937 20.9864H22.4445V17.5728H19.9937M19.9937 17.5728V14.8156M19.9937 14.8156H22.4445V11.4458H20.6064M19.9937 11.4458H20.6064M15.1796 11.4458C14.5232 11.3582 14.2168 11.3582 13.5604 10.4392" stroke="#757575" stroke-linecap="round"/>
</svg>
