<svg width="22" height="16" viewBox="0 0 22 16" fill="none" xmlns="http://www.w3.org/2000/svg">
<path d="M21.352 0.77205C20.0187 0.212778 18.6842 4.13442e-08 17.3505 4.13442e-08C13.1166 -0.000343703 8.88305 2.1429 4.64915 2.1429C3.58732 2.1429 2.52618 2.00816 1.46435 1.67129C1.34507 1.63347 1.22545 1.6156 1.10858 1.6156C0.516992 1.6156 0 2.07347 0 2.70905V13.6147C0 14.0488 0.248527 14.4603 0.647615 14.6274C1.981 15.187 3.31542 15.3998 4.64915 15.3998C8.88305 15.3998 13.117 13.2565 17.3509 13.2565C18.4127 13.2565 19.4738 13.3913 20.5356 13.7281C20.6549 13.7659 20.7745 13.7838 20.8914 13.7838C21.483 13.7838 22 13.3259 22 12.6904V1.78507C21.9997 1.35057 21.7511 0.939454 21.352 0.77205ZM1.64997 3.44501C2.34159 3.61826 3.06345 3.70522 3.80594 3.75197C3.60382 4.76224 2.71558 5.52363 1.64997 5.52363V3.44501ZM1.64997 13.2417V11.5993C2.83142 11.5993 3.78738 12.5367 3.83997 13.7099C3.06551 13.6477 2.34159 13.493 1.64997 13.2417ZM10.9998 10.9998C9.48082 10.9998 8.24987 9.52207 8.24987 7.69988C8.24987 5.87735 9.48116 4.39993 10.9998 4.39993C12.5185 4.39993 13.7498 5.87735 13.7498 7.69988C13.7498 9.52276 12.5181 10.9998 10.9998 10.9998ZM20.3497 11.9548C19.7474 11.8038 19.1222 11.7193 18.4825 11.6646C18.6842 10.7681 19.4278 10.0875 20.3497 9.97066V11.9548ZM20.3497 3.8386C19.2879 3.70419 18.4639 2.81767 18.4312 1.72285C19.1029 1.79744 19.7406 1.937 20.3497 2.15803V3.8386Z" fill="#B30000"/>
</svg>
