<svg width="20" height="20" viewBox="0 0 20 20" fill="none" xmlns="http://www.w3.org/2000/svg">
<path d="M19.0391 19.2736C18.9913 19.4802 18.875 19.6646 18.709 19.7965C18.5429 19.9285 18.3371 20.0003 18.125 20.0001C8.12109 20.0001 0 11.8947 0 1.87513L5.10156 7.97318C6.53524 11.0139 8.98232 13.461 12.023 14.8947L13.9605 12.5275C14.089 12.3701 14.2652 12.2587 14.4624 12.2101C14.6597 12.1615 14.8674 12.1783 15.0543 12.2579M19.0391 19.2736L19.9766 15.2111M19.0391 19.2736L18.5519 19.1611M19.0391 19.2736L14.8583 12.7179M19.9766 15.2111C20.025 14.9958 19.9968 14.7703 19.8969 14.5736C19.797 14.3768 19.6317 14.221 19.4293 14.1329M19.9766 15.2111L19.4887 15.1014M19.9766 15.2111L19.4894 15.0986L19.489 15.1004C19.5115 14.9988 19.4981 14.8926 19.451 14.7999C19.404 14.7071 19.3262 14.6336 19.2309 14.5919L19.2323 14.5925L19.4293 14.1329M19.4293 14.1329L15.0543 12.2579M19.4293 14.1329L19.2299 14.5914L14.8583 12.7179M15.0543 12.2579L14.8583 12.7179M15.0543 12.2579L14.8573 12.7175L14.8579 12.7177C14.7707 12.6807 14.674 12.6729 14.5821 12.6956C14.49 12.7183 14.4078 12.7703 14.3479 12.8437L14.3475 12.8442L12.41 15.2114L12.1628 15.5133L11.8098 15.3469C8.66408 13.8637 6.13249 11.3321 4.64931 8.18641L4.48288 7.83343L4.78487 7.58626L7.15206 5.64876L7.15326 5.64778C7.22664 5.5881 7.27857 5.50614 7.3012 5.41431C7.32383 5.32247 7.31593 5.22577 7.27868 5.13883L5.40447 0.765667C5.36308 0.671498 5.29024 0.594621 5.19841 0.548205C5.1064 0.501698 5.00108 0.488683 4.90053 0.511381C4.90031 0.511429 4.9001 0.511478 4.89988 0.511526L0.839063 1.44864C0.839039 1.44865 0.839016 1.44865 0.838992 1.44866C0.742619 1.47093 0.656636 1.5252 0.595071 1.60262C0.533492 1.68006 0.499978 1.77608 0.5 1.87502L0.5 1.87513C0.5 11.6182 8.39696 19.5001 18.125 19.5001H18.1253C18.2243 19.5002 18.3204 19.4667 18.3978 19.4051C18.4753 19.3436 18.5296 19.2575 18.5519 19.1611C18.5519 19.1611 18.5519 19.1611 18.5519 19.1611M14.8583 12.7179L19.4887 15.1014M18.5519 19.1611L19.4887 15.1014M18.5519 19.1611L19.4887 15.1014" stroke="#A59061"/>
</svg>
