<svg width="46" height="49" viewBox="0 0 46 49" fill="none" xmlns="http://www.w3.org/2000/svg">
<g filter="url(#filter0_d_72_85)">
<path d="M29.0417 7.3375C27.4751 5.54913 26.6118 3.25245 26.6125 0.875H19.5312V29.2917C19.4766 30.8294 18.8274 32.286 17.7203 33.3546C16.6132 34.4233 15.1346 35.0206 13.5958 35.0208C10.3417 35.0208 7.63749 32.3625 7.63749 29.0625C7.63749 25.1208 11.4417 22.1646 15.3604 23.3792V16.1375C7.45416 15.0833 0.533325 21.225 0.533325 29.0625C0.533325 36.6938 6.85833 42.125 13.5729 42.125C20.7687 42.125 26.6125 36.2812 26.6125 29.0625V14.6479C29.4839 16.7101 32.9314 17.8165 36.4667 17.8104V10.7292C36.4667 10.7292 32.1583 10.9354 29.0417 7.3375Z" fill="white"/>
</g>
<defs>
<filter id="filter0_d_72_85" x="0.533325" y="0.875" width="45.9333" height="53.25" filterUnits="userSpaceOnUse" color-interpolation-filters="sRGB">
<feFlood flood-opacity="0" result="BackgroundImageFix"/>
<feColorMatrix in="SourceAlpha" type="matrix" values="0 0 0 0 0 0 0 0 0 0 0 0 0 0 0 0 0 0 127 0" result="hardAlpha"/>
<feOffset dx="5" dy="7"/>
<feGaussianBlur stdDeviation="2.5"/>
<feComposite in2="hardAlpha" operator="out"/>
<feColorMatrix type="matrix" values="0 0 0 0 0 0 0 0 0 0 0 0 0 0 0 0 0 0 0.7 0"/>
<feBlend mode="normal" in2="BackgroundImageFix" result="effect1_dropShadow_72_85"/>
<feBlend mode="normal" in="SourceGraphic" in2="effect1_dropShadow_72_85" result="shape"/>
</filter>
</defs>
</svg>
