<svg width="62" height="47" viewBox="0 0 62 47" fill="none" xmlns="http://www.w3.org/2000/svg">
<path d="M1 45.1667H6.59809M60.0909 45.1667H53.8708M53.8708 45.1667V20.0789L58.8469 22.9298L51.3828 18.4885M53.8708 45.1667H48.8947M23.3923 1.83333L27.1244 4.05401M27.1244 4.05401V17.2281M27.1244 4.05401L45.7847 15.1574M27.1244 45.1667V17.2281M27.1244 45.1667H21.5263M27.1244 45.1667H31.4785M6.59809 45.1667V25.2105L1 27.4912L27.1244 17.2281M6.59809 45.1667H11.5742M45.7847 15.1574V6.39473H51.3828V18.4885M45.7847 15.1574L51.3828 18.4885M11.5742 45.1667V34.3333H21.5263V45.1667M11.5742 45.1667H21.5263M31.4785 45.1667V36.0439H41.4306M31.4785 45.1667H41.4306M48.8947 45.1667V36.0439H41.4306M48.8947 45.1667H41.4306M41.4306 45.1667V36.0439M11.5742 29.2017H21.5263M32.7225 17.2281C34.2399 16.1153 36.1811 16.1153 37.6986 17.2281C39.5954 18.6191 39.5954 21.5388 37.6986 22.9298C36.1811 24.0426 34.2399 24.0426 32.7225 22.9298C30.8257 21.5388 30.8257 18.6191 32.7225 17.2281Z" stroke="#757575" stroke-width="2" stroke-linecap="round"/>
</svg>
