<svg width="170" height="170" viewBox="0 0 170 170" fill="none" xmlns="http://www.w3.org/2000/svg">
<rect x="1.41421" y="84.8528" width="118" height="118" transform="rotate(-45 1.41421 84.8528)" fill="#D8B871" fill-opacity="0.3" stroke="#A59061" stroke-width="2"/>
<rect x="61" y="143.749" width="35" height="35" transform="rotate(-45 61 143.749)" fill="#A59061"/>
<rect x="61" y="143.749" width="35" height="35" transform="rotate(-45 61 143.749)" fill="#A59061"/>
<g clip-path="url(#clip0_72_98)">
<path d="M91.125 142.094H86.9062V137.875C86.9062 137.357 86.4864 136.938 85.9688 136.938H85.0312C84.5136 136.938 84.0938 137.357 84.0938 137.875V142.094H79.875C79.3573 142.094 78.9375 142.514 78.9375 143.031V143.969C78.9375 144.486 79.3573 144.906 79.875 144.906H84.0938V149.125C84.0938 149.643 84.5136 150.062 85.0312 150.062H85.9688C86.4864 150.062 86.9062 149.643 86.9062 149.125V144.906H91.125C91.6427 144.906 92.0625 144.486 92.0625 143.969V143.031C92.0625 142.514 91.6427 142.094 91.125 142.094Z" fill="white"/>
</g>
<g clip-path="url(#clip1_72_98)">
<g filter="url(#filter0_d_72_98)">
<path d="M100.322 69.4824C96.2305 65.3809 90.7812 63.125 84.9902 63.125C73.0371 63.125 63.3105 72.8516 63.3105 84.8047C63.3105 88.623 64.3066 92.3535 66.2012 95.6445L63.125 106.875L74.6191 103.857C77.7832 105.586 81.3477 106.494 84.9805 106.494H84.9902C96.9336 106.494 106.875 96.7676 106.875 84.8145C106.875 79.0234 104.414 73.584 100.322 69.4824ZM84.9902 102.842C81.748 102.842 78.5742 101.973 75.8105 100.332L75.1562 99.9414L68.3398 101.729L70.1562 95.0781L69.7266 94.3945C67.9199 91.5234 66.9727 88.2129 66.9727 84.8047C66.9727 74.873 75.0586 66.7871 85 66.7871C89.8145 66.7871 94.3359 68.6621 97.7344 72.0703C101.133 75.4785 103.223 80 103.213 84.8145C103.213 94.7559 94.9219 102.842 84.9902 102.842ZM94.873 89.3457C94.3359 89.0723 91.6699 87.7637 91.1719 87.5879C90.6738 87.4023 90.3125 87.3145 89.9512 87.8613C89.5898 88.4082 88.5547 89.6191 88.2324 89.9902C87.9199 90.3516 87.5977 90.4004 87.0605 90.127C83.877 88.5352 81.7871 87.2852 79.6875 83.6816C79.1309 82.7246 80.2441 82.793 81.2793 80.7227C81.4551 80.3613 81.3672 80.0488 81.2305 79.7754C81.0938 79.502 80.0098 76.8359 79.5605 75.752C79.1211 74.6973 78.6719 74.8438 78.3398 74.8242C78.0273 74.8047 77.666 74.8047 77.3047 74.8047C76.9434 74.8047 76.3574 74.9414 75.8594 75.4785C75.3613 76.0254 73.9648 77.334 73.9648 80C73.9648 82.666 75.9082 85.2441 76.1719 85.6055C76.4453 85.9668 79.9902 91.4355 85.4297 93.7891C88.8672 95.2734 90.2148 95.4004 91.9336 95.1465C92.9785 94.9902 95.1367 93.8379 95.5859 92.5684C96.0352 91.2988 96.0352 90.2148 95.8984 89.9902C95.7715 89.7461 95.4102 89.6094 94.873 89.3457Z" fill="white"/>
</g>
</g>
<defs>
<filter id="filter0_d_72_98" x="63.125" y="63.125" width="53.75" height="55.75" filterUnits="userSpaceOnUse" color-interpolation-filters="sRGB">
<feFlood flood-opacity="0" result="BackgroundImageFix"/>
<feColorMatrix in="SourceAlpha" type="matrix" values="0 0 0 0 0 0 0 0 0 0 0 0 0 0 0 0 0 0 127 0" result="hardAlpha"/>
<feOffset dx="5" dy="7"/>
<feGaussianBlur stdDeviation="2.5"/>
<feComposite in2="hardAlpha" operator="out"/>
<feColorMatrix type="matrix" values="0 0 0 0 0 0 0 0 0 0 0 0 0 0 0 0 0 0 0.7 0"/>
<feBlend mode="normal" in2="BackgroundImageFix" result="effect1_dropShadow_72_98"/>
<feBlend mode="normal" in="SourceGraphic" in2="effect1_dropShadow_72_98" result="shape"/>
</filter>
<clipPath id="clip0_72_98">
<rect width="15" height="15" fill="white" transform="translate(78 136)"/>
</clipPath>
<clipPath id="clip1_72_98">
<rect width="50" height="50" fill="white" transform="translate(60 60)"/>
</clipPath>
</defs>
</svg>
