<svg width="58" height="57" viewBox="0 0 58 57" fill="none" xmlns="http://www.w3.org/2000/svg">
<rect x="1.98276" y="28.7178" width="38" height="38" transform="rotate(-45 1.98276 28.7178)" stroke="#A59061" stroke-width="2"/>
<path d="M34.9868 22.5107C33.35 20.8701 31.1703 19.9678 28.8539 19.9678C24.0727 19.9678 20.1821 23.8584 20.1821 28.6396C20.1821 30.167 20.5805 31.6592 21.3383 32.9756L20.1078 37.4678L24.7055 36.2607C25.9711 36.9521 27.3969 37.3154 28.85 37.3154H28.8539C33.6313 37.3154 37.6078 33.4248 37.6078 28.6436C37.6078 26.3271 36.6235 24.1514 34.9868 22.5107ZM28.8539 35.8545C27.5571 35.8545 26.2875 35.5068 25.1821 34.8506L24.9203 34.6943L22.1938 35.4092L22.9203 32.749L22.7485 32.4756C22.0258 31.3271 21.6469 30.0029 21.6469 28.6396C21.6469 24.667 24.8813 21.4326 28.8578 21.4326C30.7836 21.4326 32.5922 22.1826 33.9516 23.5459C35.311 24.9092 36.1469 26.7178 36.143 28.6436C36.143 32.6201 32.8266 35.8545 28.8539 35.8545ZM32.8071 30.4561C32.5922 30.3467 31.5258 29.8232 31.3266 29.7529C31.1274 29.6787 30.9829 29.6436 30.8383 29.8623C30.6938 30.0811 30.2797 30.5654 30.1508 30.7139C30.0258 30.8584 29.8969 30.8779 29.6821 30.7686C28.4086 30.1318 27.5727 29.6318 26.7328 28.1904C26.5102 27.8076 26.9555 27.835 27.3696 27.0068C27.4399 26.8623 27.4047 26.7373 27.35 26.6279C27.2953 26.5186 26.8618 25.4521 26.6821 25.0186C26.5063 24.5967 26.3266 24.6553 26.1938 24.6475C26.0688 24.6396 25.9243 24.6396 25.7797 24.6396C25.6352 24.6396 25.4008 24.6943 25.2016 24.9092C25.0024 25.1279 24.4438 25.6514 24.4438 26.7178C24.4438 27.7842 25.2211 28.8154 25.3266 28.96C25.436 29.1045 26.8539 31.292 29.0297 32.2334C30.4047 32.8271 30.9438 32.8779 31.6313 32.7764C32.0493 32.7139 32.9125 32.2529 33.0922 31.7451C33.2719 31.2373 33.2719 30.8037 33.2172 30.7139C33.1664 30.6162 33.0219 30.5615 32.8071 30.4561Z" fill="white"/>
</svg>
