<svg width="21" height="16" viewBox="0 0 21 16" fill="none" xmlns="http://www.w3.org/2000/svg">
<path d="M20.4241 3.16905C20.194 2.30296 19.5163 1.62086 18.6558 1.38938C17.0962 0.96875 10.842 0.96875 10.842 0.96875C10.842 0.96875 4.58784 0.96875 3.02811 1.38938C2.16763 1.6209 1.48992 2.30296 1.2599 3.16905C0.84198 4.73889 0.84198 8.0142 0.84198 8.0142C0.84198 8.0142 0.84198 11.2895 1.2599 12.8593C1.48992 13.7254 2.16763 14.3791 3.02811 14.6106C4.58784 15.0312 10.842 15.0312 10.842 15.0312C10.842 15.0312 17.0961 15.0312 18.6558 14.6106C19.5163 14.3791 20.194 13.7254 20.4241 12.8593C20.842 11.2895 20.842 8.0142 20.842 8.0142C20.842 8.0142 20.842 4.73889 20.4241 3.16905ZM8.79651 10.9879V5.04046L14.0238 8.01427L8.79651 10.9879Z" fill="#A29060"/>
</svg>
