<svg width="170" height="170" viewBox="0 0 170 170" fill="none" xmlns="http://www.w3.org/2000/svg">
<rect x="1.41421" y="84.8528" width="118" height="118" transform="rotate(-45 1.41421 84.8528)" fill="#D8B871" fill-opacity="0.3" stroke="#A59061" stroke-width="2"/>
<rect x="60" y="144.749" width="35" height="35" transform="rotate(-45 60 144.749)" fill="#A59061"/>
<rect x="60" y="144.749" width="35" height="35" transform="rotate(-45 60 144.749)" fill="#A59061"/>
<g clip-path="url(#clip0_72_90)">
<path d="M90.125 143.094H85.9062V138.875C85.9062 138.357 85.4864 137.938 84.9688 137.938H84.0312C83.5136 137.938 83.0938 138.357 83.0938 138.875V143.094H78.875C78.3573 143.094 77.9375 143.514 77.9375 144.031V144.969C77.9375 145.486 78.3573 145.906 78.875 145.906H83.0938V150.125C83.0938 150.643 83.5136 151.062 84.0312 151.062H84.9688C85.4864 151.062 85.9062 150.643 85.9062 150.125V145.906H90.125C90.6427 145.906 91.0625 145.486 91.0625 144.969V144.031C91.0625 143.514 90.6427 143.094 90.125 143.094Z" fill="white"/>
</g>
<g clip-path="url(#clip1_72_90)">
<g filter="url(#filter0_d_72_90)">
<path d="M107.713 73.5488C107.168 71.4958 105.561 69.879 103.522 69.3303C99.8247 68.3333 85 68.3333 85 68.3333C85 68.3333 70.1753 68.3333 66.4782 69.3303C64.4385 69.8791 62.8321 71.4958 62.2869 73.5488C61.2963 77.2699 61.2963 85.0336 61.2963 85.0336C61.2963 85.0336 61.2963 92.7973 62.2869 96.5184C62.8321 98.5714 64.4385 100.121 66.4782 100.67C70.1753 101.667 85 101.667 85 101.667C85 101.667 99.8246 101.667 103.522 100.67C105.561 100.121 107.168 98.5714 107.713 96.5184C108.704 92.7973 108.704 85.0336 108.704 85.0336C108.704 85.0336 108.704 77.2699 107.713 73.5488ZM80.1515 92.0825V77.9847L92.542 85.0338L80.1515 92.0825Z" fill="white"/>
</g>
</g>
<defs>
<filter id="filter0_d_72_90" x="61.2963" y="68.3333" width="57.4075" height="45.3333" filterUnits="userSpaceOnUse" color-interpolation-filters="sRGB">
<feFlood flood-opacity="0" result="BackgroundImageFix"/>
<feColorMatrix in="SourceAlpha" type="matrix" values="0 0 0 0 0 0 0 0 0 0 0 0 0 0 0 0 0 0 127 0" result="hardAlpha"/>
<feOffset dx="5" dy="7"/>
<feGaussianBlur stdDeviation="2.5"/>
<feComposite in2="hardAlpha" operator="out"/>
<feColorMatrix type="matrix" values="0 0 0 0 0 0 0 0 0 0 0 0 0 0 0 0 0 0 0.7 0"/>
<feBlend mode="normal" in2="BackgroundImageFix" result="effect1_dropShadow_72_90"/>
<feBlend mode="normal" in="SourceGraphic" in2="effect1_dropShadow_72_90" result="shape"/>
</filter>
<clipPath id="clip0_72_90">
<rect width="15" height="15" fill="white" transform="translate(77 137)"/>
</clipPath>
<clipPath id="clip1_72_90">
<rect width="50" height="50" fill="white" transform="translate(60 60)"/>
</clipPath>
</defs>
</svg>
